<?xml version="1.0" encoding="UTF-8" standalone="no"?>
<!-- Created with Inkscape (http://www.inkscape.org/) -->

<svg
   width="94.377655mm"
   height="92.827644mm"
   viewBox="0 0 94.377654 92.827642"
   version="1.1"
   id="svg1"
   xml:space="preserve"
   inkscape:version="1.3.2 (091e20e, 2023-11-25, custom)"
   sodipodi:docname="muadzin.svg"
   xmlns:inkscape="http://www.inkscape.org/namespaces/inkscape"
   xmlns:sodipodi="http://sodipodi.sourceforge.net/DTD/sodipodi-0.dtd"
   xmlns="http://www.w3.org/2000/svg"
   xmlns:svg="http://www.w3.org/2000/svg"><sodipodi:namedview
     id="namedview1"
     pagecolor="#ffffff"
     bordercolor="#000000"
     borderopacity="0.25"
     inkscape:showpageshadow="2"
     inkscape:pageopacity="0.0"
     inkscape:pagecheckerboard="0"
     inkscape:deskcolor="#d1d1d1"
     inkscape:document-units="mm"
     inkscape:zoom="0.69219276"
     inkscape:cx="134.35564"
     inkscape:cy="120.63114"
     inkscape:window-width="1920"
     inkscape:window-height="991"
     inkscape:window-x="-9"
     inkscape:window-y="-9"
     inkscape:window-maximized="1"
     inkscape:current-layer="layer1" /><defs
     id="defs1" /><g
     inkscape:label="Layer 1"
     inkscape:groupmode="layer"
     id="layer1"
     transform="translate(-57.811175,-102.08618)"><path
       style="fill:#000000"
       d="m 57.833861,186.00254 0.02268,-8.91117 0.232833,-0.35815 c 0.128058,-0.19698 0.232833,-0.41725 0.232833,-0.48949 0,-0.0722 0.05715,-0.15327 0.127,-0.18008 0.06985,-0.0268 0.127,-0.10336 0.127,-0.17014 0,-0.12098 0.494606,-1.13465 0.592911,-1.21514 0.02844,-0.0233 0.101787,-0.16616 0.163001,-0.3175 0.06121,-0.15134 0.146758,-0.27517 0.190098,-0.27517 0.04334,0 0.118644,-0.1143 0.167344,-0.254 0.0487,-0.1397 0.12035,-0.254 0.159223,-0.254 0.03887,0 0.09343,-0.0717 0.121231,-0.15927 0.0278,-0.0876 0.122588,-0.24234 0.21063,-0.34385 0.08804,-0.10152 0.302795,-0.39179 0.477226,-0.64506 0.174432,-0.25326 0.348916,-0.46048 0.387743,-0.46048 0.03883,0 0.07059,-0.0386 0.07059,-0.0857 0,-0.0471 0.2286,-0.31643 0.508,-0.59844 0.2794,-0.28202 0.508,-0.54826 0.508,-0.59164 0,-0.0434 0.06072,-0.0789 0.134927,-0.0789 0.07421,0 0.154853,-0.0762 0.179208,-0.16933 0.02435,-0.0931 0.07662,-0.16934 0.116154,-0.16934 0.03953,0 0.181703,-0.10477 0.31594,-0.23283 0.468482,-0.44692 0.834706,-0.74176 1.077937,-0.86783 0.318998,-0.16535 0.546501,-0.39236 0.546501,-0.54534 0,-0.0671 0.0381,-0.14555 0.08467,-0.17433 0.04657,-0.0288 0.08532,-0.11675 0.08613,-0.1955 0.0021,-0.20594 0.36038,-0.5161 0.666991,-0.57742 0.240855,-0.0482 0.376303,-0.20075 0.178213,-0.20075 -0.04685,0 -0.08467,-0.22244 -0.08467,-0.49798 v -0.49799 l 0.529167,-0.51232 c 0.875492,-0.84763 1.278967,-1.20563 1.524,-1.35224 0.128058,-0.0766 0.232833,-0.17014 0.232833,-0.20782 0,-0.0377 0.09525,-0.10472 0.211667,-0.14898 0.116416,-0.0443 0.211666,-0.13857 0.211666,-0.20957 0,-0.071 0.05256,-0.1291 0.116791,-0.1291 0.06423,0 0.273829,-0.1524 0.465764,-0.33866 0.191935,-0.18627 0.387029,-0.33867 0.433542,-0.33867 0.04651,0 0.08457,-0.0381 0.08457,-0.0847 0,-0.0466 0.04874,-0.0847 0.108309,-0.0847 0.05957,0 0.163231,-0.0762 0.230358,-0.16934 0.06713,-0.0931 0.170787,-0.16933 0.230357,-0.16933 0.05957,0 0.108309,-0.0308 0.108309,-0.0684 0,-0.0376 0.155577,-0.1805 0.345727,-0.3175 0.190149,-0.13699 0.443362,-0.33479 0.562696,-0.43957 0.119334,-0.10477 0.268557,-0.1905 0.331607,-0.1905 0.06305,0 0.114637,-0.051 0.114637,-0.11341 0,-0.0624 0.09525,-0.15681 0.211667,-0.20985 0.116416,-0.053 0.211666,-0.13536 0.211666,-0.18292 0,-0.0476 0.04017,-0.0865 0.08926,-0.0865 0.04909,0 0.211017,-0.11412 0.359833,-0.2536 0.148816,-0.13949 0.308675,-0.25397 0.355242,-0.25441 0.04657,-4.4e-4 0.220735,-0.12444 0.387041,-0.27556 0.166306,-0.15112 0.42856,-0.37001 0.582786,-0.48643 0.154227,-0.11641 0.357363,-0.27834 0.451414,-0.35983 0.09405,-0.0815 0.194781,-0.14817 0.223845,-0.14817 0.02906,0 0.170359,-0.10477 0.313991,-0.23283 0.143631,-0.12806 0.34617,-0.28998 0.450085,-0.35983 0.103916,-0.0699 0.290165,-0.21268 0.413888,-0.3174 0.123722,-0.10472 0.251983,-0.19044 0.285023,-0.1905 0.03304,-6e-5 0.15796,-0.10488 0.277599,-0.23294 l 0.217525,-0.23283 -0.217349,-0.17511 c -0.199566,-0.16077 -0.228843,-0.45989 -0.04501,-0.45989 0.03468,0 0.176191,-0.10812 0.314474,-0.24027 0.138282,-0.13215 0.372533,-0.31182 0.520557,-0.39926 0.148024,-0.0874 0.269135,-0.18424 0.269135,-0.21512 0,-0.0309 0.1143,-0.10348 0.254,-0.16135 0.1397,-0.0579 0.254,-0.1393 0.254,-0.18097 0,-0.0417 0.13335,-0.13936 0.296333,-0.21708 0.162983,-0.0777 0.296333,-0.17236 0.296333,-0.2103 0,-0.0379 0.05526,-0.069 0.122793,-0.069 0.06754,0 0.153261,-0.0497 0.1905,-0.1104 0.03724,-0.0607 0.201057,-0.17655 0.364041,-0.25738 0.162983,-0.0808 0.483027,-0.2665 0.711209,-0.41257 l 0.414877,-0.26559 0.460768,-0.0198 0.460768,-0.0198 0.16482,-0.17691 c 0.09065,-0.0973 0.199705,-0.17692 0.242341,-0.17692 0.04264,0 0.17277,-0.0952 0.289186,-0.21166 0.116417,-0.11642 0.241974,-0.21185 0.279015,-0.21206 0.03704,-2.2e-4 0.189108,-0.11452 0.337924,-0.254 0.148816,-0.13949 0.296186,-0.25361 0.327489,-0.25361 0.0313,0 0.179756,-0.10477 0.329895,-0.23283 0.150139,-0.12806 0.361479,-0.28999 0.469643,-0.35984 0.108165,-0.0699 0.262817,-0.18991 0.343672,-0.2668 0.08085,-0.0769 0.222873,-0.16389 0.315595,-0.19332 0.191171,-0.0607 0.290229,-0.27704 0.487081,-1.06388 1.541388,-6.1611 4.039237,-11.6781 6.554993,-14.478 1.787217,-1.98907 3.053989,-3.66717 4.447723,-5.89191 0.318778,-0.50885 0.381845,-0.52651 0.744144,-0.20841 l 0.294397,0.25849 0.05309,-0.19058 c 0.0292,-0.10482 0.09728,-0.66684 0.151294,-1.24892 l 0.0982,-1.05833 -0.140466,-1.78648 -0.140467,-1.78648 0.12591,-1.09219 c 0.152418,-1.32212 0.368142,-2.27916 0.818027,-3.62909 0.186795,-0.5605 0.352602,-1.1715 0.36846,-1.35776 0.01586,-0.18627 0.48996,-2.73897 1.053561,-5.67267 0.563601,-2.9337 1.199987,-6.2484 1.414194,-7.366 0.45903,-2.39498 0.28786,-2.03945 1.07942,-2.2419 12.66352,-3.238777 23.5522,0.57422 28.2347,9.88725 l 0.34799,0.69213 -0.30295,1.16526 c -0.69787,2.68429 -1.76533,6.43418 -2.62605,9.22511 l -0.55343,1.79452 0.21149,0.66947 c 0.70564,2.23373 0.67853,4.88325 -0.0881,8.61083 -0.16281,0.79163 -0.42333,2.05612 -0.57894,2.80996 -0.15562,0.75385 -0.32428,1.78255 -0.3748,2.286 -0.1064,1.06017 -0.20428,1.46149 -0.47104,1.93137 -0.34074,0.60018 -0.36818,0.8432 -0.20237,1.79206 l 0.0912,0.52206 0.22458,0.0554 c 0.9105,0.22475 2.62493,2.13639 3.16492,3.52899 l 0.18977,0.48938 0.33995,0.0423 c 5.39309,0.6716 13.25869,2.49682 15.22406,3.53275 0.0837,0.0441 0.53703,0.13751 1.00748,0.20758 3.75283,0.55894 6.54135,4.25822 7.01558,9.30693 0.40103,4.26942 -1.5858,10.52683 -4.92075,15.49762 -3.07112,4.57756 -4.53604,10.0861 -4.38296,16.48118 l 0.0279,1.16431 -28.8925,-1.4e-4 c -15.890883,-8e-5 -28.892508,-0.0243 -28.892508,-0.0538 0,-0.5066 1.159595,-9.60152 1.530197,-12.00163 0.09265,-0.60003 0.157733,-1.10142 0.144629,-1.1142 -0.0131,-0.0128 -0.824398,0.45909 -1.802875,1.04862 l -1.779049,1.07186 -0.76095,0.76219 c -2.228986,2.2326 -4.478387,3.52344 -6.941618,3.9835 l -0.762,0.14231 -1.312333,-0.0445 -1.312334,-0.0445 -0.846666,-0.21305 c -4.069488,-1.02404 -7.239,-4.77715 -7.239,-8.57192 v -0.45365 l -0.130655,0.0501 c -0.149894,0.0575 -0.58208,0.41907 -1.122917,0.93939 -0.205715,0.1979 -0.409063,0.35983 -0.451885,0.35983 -0.04282,0 -0.09979,0.0571 -0.126592,0.127 -0.0268,0.0699 -0.09924,0.127 -0.160971,0.127 -0.06173,0 -0.136421,0.0762 -0.16598,0.16933 -0.02956,0.0931 -0.103662,0.16934 -0.164672,0.16934 -0.06101,0 -0.154552,0.0526 -0.207871,0.11681 l -0.09694,0.11681 0.150077,0.26365 c 0.08254,0.14501 0.17595,0.2639 0.207574,0.26419 0.03162,3e-4 0.100282,0.21961 0.152574,0.48737 0.05229,0.26776 0.134131,0.56602 0.181864,0.6628 0.09938,0.2015 -0.04388,1.45718 -0.182015,1.59531 -0.04561,0.0456 -0.08292,0.16589 -0.08292,0.26729 0,0.1014 -0.05715,0.2318 -0.127,0.28977 -0.06985,0.058 -0.127,0.14044 -0.127,0.18327 0,0.18946 -0.915931,1.10432 -1.34969,1.3481 l -0.343644,0.19314 v 1.33202 c 0,0.75476 0.03449,1.34425 0.07958,1.36024 0.04537,0.0161 0.105506,1.11081 0.139905,2.54706 l 0.06033,2.51883 h -1.15742 -1.15742 z m 1.843014,-5.94784 c 0.05797,-0.0699 0.132096,-0.127 0.164723,-0.127 0.03263,0 0.262124,-0.1894 0.509992,-0.42089 0.247869,-0.23148 0.578516,-0.50771 0.734772,-0.61383 0.156255,-0.10612 0.305661,-0.25962 0.332012,-0.34111 0.02635,-0.0815 0.09297,-0.1485 0.14804,-0.1489 0.05507,-4e-4 0.240459,-0.13375 0.411976,-0.29633 0.171516,-0.16258 0.332171,-0.2956 0.357011,-0.2956 0.02484,0 0.178513,-0.13335 0.341496,-0.29634 0.162983,-0.16298 0.313128,-0.29633 0.333654,-0.29633 0.04563,0 0.603564,-0.50001 1.138509,-1.02029 0.219684,-0.21367 0.446349,-0.53424 0.508844,-0.71967 0.215702,-0.63999 0.395708,-1.05341 0.458804,-1.05372 0.03493,-1.8e-4 0.0635,-0.0528 0.0635,-0.11695 0,-0.0642 0.05994,-0.16638 0.133188,-0.22717 0.07325,-0.0608 0.20424,-0.24644 0.291081,-0.41254 0.08684,-0.16609 0.293606,-0.45179 0.459479,-0.63487 0.165872,-0.18309 0.301585,-0.38311 0.301585,-0.4445 0,-0.0614 0.02858,-0.11335 0.0635,-0.11547 0.133981,-0.008 1.513093,-2.0001 1.47742,-2.13399 -0.0093,-0.0349 0.01416,-0.0635 0.05216,-0.0635 0.03799,0 0.15473,-0.1524 0.259418,-0.33866 l 0.190341,-0.33867 h -0.174751 c -0.09611,0 -0.17475,0.0355 -0.17475,0.079 0,0.14209 -0.314043,0.18257 -0.561771,0.0724 -0.240465,-0.10692 -0.350325,-0.17993 -0.57812,-0.38421 -0.162843,-0.14604 -0.384109,-0.1328 -0.384109,0.023 0,0.0709 -0.09525,0.17221 -0.211667,0.22526 -0.116417,0.053 -0.211667,0.13395 -0.211667,0.17979 0,0.0515 -0.226566,0.0644 -0.592666,0.0337 -0.349429,-0.0293 -0.592667,-0.017 -0.592667,0.0301 0,0.0439 -0.04443,0.0797 -0.09873,0.0797 -0.0543,0 -0.159077,0.0554 -0.232833,0.12307 -0.44344,0.40696 -0.522622,0.46959 -0.593624,0.46959 -0.04319,0 -0.153445,0.0952 -0.245019,0.21167 -0.09157,0.11642 -0.227688,0.21167 -0.302478,0.21167 -0.07479,0 -0.135982,0.058 -0.135982,0.12881 0,0.0708 -0.09525,0.17222 -0.211666,0.22526 -0.116417,0.053 -0.211667,0.13203 -0.211667,0.17552 0,0.0435 -0.149695,0.23741 -0.332656,0.43091 -0.538026,0.56904 -0.849877,0.93976 -0.851325,1.01204 -7.44e-4,0.0371 -0.09259,0.1521 -0.204095,0.25544 -0.111508,0.10334 -0.286805,0.34917 -0.389548,0.54629 -0.102744,0.19712 -0.216616,0.35839 -0.25305,0.35839 -0.03643,0 -0.08863,0.0667 -0.115993,0.14817 -0.05516,0.16427 -0.236426,0.46349 -0.320572,0.52917 -0.02983,0.0233 -0.138454,0.20426 -0.241382,0.40216 -0.102928,0.19791 -0.215207,0.35984 -0.249509,0.35984 -0.0343,0 -0.133595,0.20955 -0.220651,0.46566 -0.08706,0.25612 -0.188495,0.46567 -0.225419,0.46567 -0.03692,0 -0.06713,0.0544 -0.06713,0.12095 0,0.0665 -0.05305,0.17401 -0.117898,0.23885 -0.06484,0.0649 -0.187985,0.34379 -0.273646,0.61988 -0.08566,0.27609 -0.204039,0.55232 -0.263062,0.61383 -0.05902,0.0615 -0.131252,0.26154 -0.160509,0.4445 -0.02926,0.18296 -0.08018,0.33266 -0.113158,0.33266 -0.03298,0 -0.125224,0.21907 -0.204985,0.48683 -0.07976,0.26776 -0.163811,0.52974 -0.186777,0.58219 -0.03772,0.0861 0.104688,0.1145 1.373168,0.27366 0.05251,0.007 0.142897,-0.0452 0.200867,-0.11502 z m 9.036403,-10.59215 c -0.02814,-0.0281 -0.10116,-0.0311 -0.162278,-0.007 -0.06754,0.027 -0.04748,0.0471 0.05115,0.0511 0.08925,0.004 0.139259,-0.0163 0.111125,-0.0445 z m 0.508,-0.254 c -0.02813,-0.0281 -0.10116,-0.0311 -0.162278,-0.007 -0.06754,0.027 -0.04748,0.0471 0.05115,0.0512 0.08925,0.004 0.139259,-0.0163 0.111125,-0.0445 z m 33.989782,-7.41786 c -0.0607,-0.0607 -0.10019,-0.0657 -0.10019,-0.0127 0,0.11301 0.10013,0.21314 0.15664,0.15664 0.0241,-0.0241 -0.001,-0.0888 -0.0564,-0.14394 z m -0.28032,-0.29137 c -0.0639,-0.0772 -0.22097,-0.25269 -0.34903,-0.38995 -0.12806,-0.13727 -0.23284,-0.29931 -0.23284,-0.36009 0,-0.0608 -0.10477,-0.20001 -0.23283,-0.30938 -0.12806,-0.10936 -0.32808,-0.34109 -0.4445,-0.51494 -0.11642,-0.17386 -0.23887,-0.31636 -0.27211,-0.31668 -0.0332,-3.2e-4 -0.15707,-0.14277 -0.27517,-0.31656 -0.1181,-0.1738 -0.21472,-0.25851 -0.21472,-0.18826 0,0.19212 1.9323,2.53624 2.09067,2.53624 0.0257,0 -0.006,-0.0632 -0.0695,-0.14038 z m -13.894703,-7.83844 0.191495,-0.0942 -0.0545,-0.17171 c -0.02997,-0.0944 -0.106622,-0.22384 -0.170329,-0.28754 -0.06371,-0.0637 -0.11583,-0.16618 -0.11583,-0.22773 0,-0.0615 -0.05715,-0.13382 -0.127,-0.16062 -0.06985,-0.0268 -0.127,-0.0986 -0.127,-0.15953 0,-0.0609 -0.117114,-0.23901 -0.260254,-0.39573 l -0.260255,-0.28494 -0.459412,0.10281 c -0.388726,0.087 -0.64073,0.26 -0.378718,0.26 0.04438,0 0.147215,0.14288 0.228518,0.3175 0.0813,0.17463 0.21644,0.37912 0.300306,0.45443 0.08387,0.0753 0.152482,0.17444 0.152482,0.22028 0,0.0458 0.116437,0.20519 0.258749,0.3541 l 0.258748,0.27076 0.185752,-0.0519 c 0.102163,-0.0285 0.271924,-0.0942 0.377247,-0.14603 z m 12.576083,-1.71551 c -0.021,-0.1397 -0.0416,-0.30344 -0.0458,-0.36386 l -0.008,-0.10987 -0.12546,0.12545 -0.12545,0.12546 0.11226,0.40093 0.11225,0.40094 0.059,-0.16253 c 0.0324,-0.0894 0.0418,-0.27682 0.0209,-0.41652 z m -14.587912,-0.2107 c 0,-0.046 -0.06562,-0.16033 -0.145817,-0.254 -0.173131,-0.2022 -0.466173,-0.23451 -0.392801,-0.0433 0.0268,0.0699 0.103004,0.127 0.169333,0.127 0.06633,0 0.14253,0.0572 0.169334,0.127 0.05442,0.14182 0.199951,0.17334 0.199951,0.0433 z m 14.283872,-0.65471 -0.14454,-0.14454 v 0.17336 c 0,0.0953 0.026,0.1994 0.0579,0.23122 0.0318,0.0318 0.0969,0.0188 0.14454,-0.0288 0.0591,-0.0591 0.0407,-0.13262 -0.0579,-0.23122 z m -0.67601,-0.15146 0.43059,-0.12787 -0.0461,-0.5283 -0.0461,-0.52829 -0.68859,-0.71967 c -2.108989,-2.20417 -3.423219,-5.92131 -3.936416,-11.13367 l -0.141713,-1.43933 -0.244524,0.42333 c -0.134489,0.23284 -0.466286,0.76962 -0.737329,1.19286 -1.454854,2.27177 -1.057471,7.14442 0.732005,8.97573 0.535347,0.54786 0.722255,0.77048 0.722255,0.86026 0,0.051 0.04891,0.14307 0.108687,0.20461 0.176711,0.1819 0.574517,1.05612 0.626586,1.37698 0.165021,1.01691 1.955105,1.81917 3.220589,1.44336 z m -7.614559,-0.6553 c -0.05164,-0.15134 -0.143252,-0.30471 -0.203587,-0.34081 -0.06033,-0.0361 -0.216128,-0.25515 -0.346208,-0.48675 -0.130079,-0.2316 -0.265083,-0.42114 -0.300008,-0.42118 -0.03493,-5e-5 -0.0635,-0.0543 -0.0635,-0.12058 0,-0.0663 -0.1143,-0.23478 -0.254,-0.37448 -0.1397,-0.1397 -0.254,-0.29503 -0.254,-0.34518 0,-0.0501 -0.0381,-0.0912 -0.08467,-0.0912 -0.04657,0 -0.08467,-0.0408 -0.08467,-0.0907 0,-0.0938 -0.206719,-0.33262 -0.287928,-0.33262 -0.125824,0 5.39e-4,0.98035 0.139762,1.0843 0.08149,0.0609 0.148166,0.16563 0.148166,0.23284 0,0.0672 0.03892,0.1222 0.08648,0.1222 0.04757,0 0.129336,0.0941 0.181714,0.20901 0.05238,0.11496 0.123444,0.19157 0.157925,0.17026 0.03448,-0.0213 0.109775,0.018 0.16732,0.0873 0.05755,0.0693 0.147797,0.12606 0.20056,0.12606 0.05276,0 0.267174,0.18926 0.476467,0.42058 0.209293,0.23131 0.388075,0.42181 0.397295,0.42333 0.0092,0.002 -0.02549,-0.12106 -0.07713,-0.27241 z"
       id="path1" /></g></svg>
